<?xml version="1.0" encoding="utf-8"?>
<!-- Generator: Adobe Illustrator 16.0.0, SVG Export Plug-In . SVG Version: 6.00 Build 0)  -->
<!DOCTYPE svg PUBLIC "-//W3C//DTD SVG 1.1//EN" "http://www.w3.org/Graphics/SVG/1.1/DTD/svg11.dtd">
<svg version="1.1" id="Layer_1" xmlns="http://www.w3.org/2000/svg" xmlns:xlink="http://www.w3.org/1999/xlink" x="0px" y="0px"
	 width="350px" height="150px" viewBox="0 0 350 150" enable-background="new 0 0 350 150" xml:space="preserve">
<path fill="#3B5D8F" d="M46.073,29.56L46.073,29.56C21.737,29.554,2.007,49.275,2,73.609c0,0.003,0,0.009,0,0.011l0,0
	c0,24.335,19.727,44.063,44.06,44.063c0.005,0,0.009,0,0.014,0l0,0c24.333,0,44.06-19.728,44.06-44.063l0,0
	C90.133,49.287,70.406,29.56,46.073,29.56z"/>
<path fill="#FE804C" d="M109.296,96.852c0.272,0.423,0.658,0.757,1.116,0.965c0.438,0.205,0.917,0.312,1.4,0.313
	c0.278-0.002,0.556-0.044,0.823-0.129c0.277-0.082,0.539-0.211,0.772-0.387c0.229-0.165,0.421-0.375,0.563-0.619
	c0.15-0.261,0.228-0.557,0.219-0.857c0.024-0.4-0.137-0.787-0.436-1.05c-0.326-0.259-0.692-0.462-1.084-0.602
	c-0.432-0.163-0.904-0.321-1.412-0.472c-0.497-0.146-0.97-0.359-1.41-0.63c-0.437-0.275-0.808-0.646-1.083-1.083
	c-0.318-0.559-0.469-1.197-0.436-1.838c0.006-0.382,0.084-0.757,0.227-1.111c0.161-0.403,0.404-0.771,0.714-1.072
	c0.362-0.349,0.787-0.625,1.25-0.815c0.583-0.233,1.209-0.344,1.837-0.327c0.632-0.005,1.26,0.088,1.865,0.271
	c0.62,0.194,1.166,0.574,1.563,1.091l-1.309,1.188c-0.21-0.329-0.506-0.596-0.857-0.771c-0.391-0.196-0.824-0.295-1.262-0.286
	c-0.379-0.013-0.756,0.048-1.115,0.173c-0.267,0.103-0.51,0.257-0.713,0.454c-0.17,0.17-0.303,0.372-0.386,0.598
	c-0.069,0.188-0.106,0.388-0.108,0.588c-0.027,0.432,0.13,0.853,0.436,1.16c0.317,0.283,0.685,0.505,1.084,0.654
	c0.461,0.178,0.932,0.328,1.409,0.451c0.493,0.129,0.968,0.318,1.412,0.565c0.43,0.237,0.8,0.571,1.081,0.972
	c0.32,0.505,0.473,1.095,0.44,1.692c0.006,0.531-0.105,1.059-0.329,1.543c-0.208,0.443-0.509,0.838-0.884,1.157
	c-0.385,0.323-0.829,0.569-1.309,0.722c-0.52,0.171-1.064,0.257-1.613,0.251c-0.739,0.01-1.474-0.122-2.164-0.387
	c-0.653-0.246-1.22-0.678-1.629-1.243L109.296,96.852z"/>
<path fill="#FE804C" d="M129.585,90.016c-0.336-0.437-0.774-0.782-1.277-1.005c-0.499-0.234-1.044-0.353-1.593-0.353
	c-0.628-0.009-1.251,0.122-1.823,0.386c-0.531,0.242-1.005,0.592-1.394,1.03c-0.397,0.45-0.701,0.976-0.898,1.543
	c-0.216,0.607-0.325,1.248-0.32,1.893c-0.003,0.604,0.097,1.207,0.3,1.779c0.194,0.545,0.492,1.045,0.877,1.479
	c0.388,0.431,0.861,0.774,1.393,1.008c0.587,0.26,1.222,0.392,1.865,0.384c0.623,0.017,1.242-0.13,1.794-0.419
	c0.523-0.287,0.973-0.687,1.312-1.178l1.359,1.025c-0.145,0.188-0.302,0.364-0.471,0.529c-0.268,0.263-0.566,0.494-0.888,0.688
	c-0.42,0.252-0.868,0.457-1.335,0.605c-0.584,0.181-1.194,0.269-1.807,0.259c-0.877,0.012-1.747-0.17-2.542-0.537
	c-2.172-1.025-3.56-3.208-3.57-5.608c-0.011-0.868,0.145-1.731,0.455-2.543c0.282-0.751,0.713-1.435,1.266-2.015
	c0.552-0.571,1.218-1.022,1.956-1.32c0.802-0.322,1.658-0.48,2.521-0.47c0.793,0,1.58,0.152,2.315,0.454
	c0.735,0.285,1.376,0.769,1.856,1.395L129.585,90.016z"/>
<path fill="#FE804C" d="M136.111,87.446h1.614v4.939h6.176v-4.939h1.609v11.891h-1.609v-5.441h-6.176v5.441h-1.614V87.446z"/>
<path fill="#FE804C" d="M157.156,99.638c-0.86,0.011-1.711-0.152-2.506-0.478c-0.735-0.301-1.4-0.748-1.957-1.316
	c-0.549-0.573-0.982-1.247-1.274-1.983c-0.618-1.587-0.618-3.351,0-4.938c0.293-0.734,0.726-1.408,1.274-1.979
	c0.556-0.567,1.222-1.018,1.957-1.32c1.611-0.64,3.407-0.64,5.018,0c0.734,0.303,1.4,0.753,1.957,1.32
	c0.55,0.569,0.983,1.243,1.277,1.979c0.612,1.59,0.612,3.349,0,4.938c-0.291,0.738-0.725,1.412-1.277,1.983
	c-0.556,0.568-1.222,1.016-1.957,1.316C158.87,99.487,158.016,99.65,157.156,99.638z M157.156,98.13
	c1.234,0.021,2.418-0.486,3.257-1.396c0.397-0.437,0.705-0.946,0.905-1.504c0.423-1.189,0.423-2.488,0-3.678
	c-0.2-0.555-0.508-1.065-0.905-1.502c-0.4-0.43-0.88-0.773-1.414-1.016c-1.742-0.794-3.797-0.384-5.104,1.016
	c-0.399,0.437-0.707,0.945-0.905,1.502c-0.428,1.189-0.428,2.488,0,3.678c0.198,0.558,0.506,1.067,0.905,1.504
	c0.399,0.432,0.877,0.775,1.41,1.016C155.886,98.009,156.519,98.138,157.156,98.13z"/>
<path fill="#FE804C" d="M174.306,99.638c-0.858,0.013-1.709-0.152-2.505-0.478c-0.733-0.301-1.401-0.748-1.956-1.316
	c-0.55-0.571-0.983-1.247-1.273-1.983c-0.618-1.587-0.618-3.351,0-4.938c0.291-0.736,0.723-1.41,1.273-1.979
	c0.556-0.567,1.223-1.018,1.956-1.32c1.612-0.64,3.407-0.64,5.02,0c0.73,0.305,1.395,0.753,1.947,1.32
	c0.549,0.571,0.982,1.245,1.277,1.979c0.612,1.59,0.612,3.349,0,4.938c-0.293,0.736-0.728,1.412-1.277,1.983
	c-0.556,0.568-1.222,1.016-1.956,1.316C176.018,99.487,175.165,99.65,174.306,99.638z M174.306,98.13
	c1.235,0.021,2.42-0.486,3.259-1.396c0.396-0.438,0.705-0.948,0.905-1.504c0.422-1.189,0.422-2.488,0-3.678
	c-0.2-0.555-0.509-1.065-0.905-1.502c-0.4-0.43-0.88-0.773-1.414-1.016c-1.178-0.505-2.513-0.505-3.693,0
	c-1.083,0.486-1.921,1.396-2.316,2.518c-0.427,1.189-0.427,2.488,0,3.678c0.199,0.558,0.506,1.067,0.905,1.504
	C171.884,97.644,173.071,98.151,174.306,98.13L174.306,98.13z"/>
<path fill="#FE804C" d="M185.95,87.446h1.611v10.382h5.456v1.509h-7.067V87.446z"/>
<path fill="#FE804C" d="M211.51,99.638c-0.857,0.013-1.709-0.152-2.503-0.478c-0.734-0.301-1.401-0.748-1.955-1.316
	c-0.553-0.571-0.986-1.245-1.278-1.983c-0.611-1.589-0.611-3.348,0-4.938c0.293-0.736,0.728-1.41,1.278-1.979
	c0.554-0.567,1.221-1.018,1.955-1.32c1.612-0.64,3.408-0.64,5.019,0c0.734,0.303,1.398,0.751,1.952,1.32
	c0.552,0.569,0.984,1.243,1.278,1.979c0.618,1.587,0.618,3.351,0,4.938c-0.291,0.738-0.727,1.412-1.278,1.983
	c-0.553,0.57-1.218,1.016-1.952,1.316C213.226,99.487,212.371,99.65,211.51,99.638z M211.51,98.13
	c0.637,0.006,1.268-0.125,1.85-0.386c0.532-0.24,1.01-0.586,1.407-1.016c0.398-0.438,0.706-0.949,0.907-1.506
	c0.427-1.189,0.427-2.489,0-3.678c-0.201-0.556-0.509-1.065-0.907-1.502c-1.681-1.798-4.503-1.895-6.301-0.215
	c-0.075,0.07-0.145,0.142-0.214,0.215c-0.399,0.437-0.708,0.946-0.909,1.502c-0.426,1.188-0.426,2.488,0,3.678
	c0.201,0.557,0.51,1.067,0.909,1.506c0.838,0.907,2.021,1.414,3.258,1.393V98.13z"/>
<path fill="#FE804C" d="M223.153,87.446h7.476v1.513h-5.863v3.729h5.457v1.511h-5.457v5.138h-1.612V87.446z"/>
<path fill="#FE804C" d="M244.18,87.446h4.13c0.485-0.004,0.967,0.059,1.437,0.185c0.417,0.104,0.811,0.293,1.157,0.548
	c0.327,0.241,0.591,0.558,0.771,0.923c0.194,0.411,0.288,0.866,0.279,1.32c0.026,0.609-0.179,1.206-0.573,1.671
	c-0.399,0.441-0.91,0.769-1.477,0.947v0.033c0.352,0.021,0.693,0.115,1.007,0.277c0.31,0.159,0.587,0.376,0.814,0.637
	c0.234,0.271,0.422,0.581,0.548,0.916c0.137,0.36,0.203,0.74,0.201,1.126c0.025,0.97-0.435,1.89-1.227,2.451
	c-0.401,0.292-0.852,0.509-1.328,0.64c-0.531,0.148-1.08,0.222-1.63,0.217h-4.11V87.446z M245.794,92.386h2.199
	c0.288,0.002,0.575-0.03,0.858-0.093c0.251-0.054,0.49-0.162,0.7-0.313c0.202-0.143,0.365-0.331,0.479-0.55
	c0.126-0.257,0.188-0.543,0.178-0.826c0.039-0.933-0.686-1.718-1.616-1.757c-0.088-0.003-0.177,0-0.265,0.011h-2.534V92.386z
	 M245.794,97.929h2.366c0.271-0.004,0.545-0.03,0.813-0.076c0.295-0.05,0.577-0.152,0.835-0.303
	c0.259-0.154,0.483-0.363,0.652-0.612c0.194-0.308,0.289-0.666,0.27-1.027c0.04-0.609-0.216-1.199-0.686-1.587
	c-0.549-0.377-1.204-0.565-1.867-0.529h-2.383V97.929z"/>
<path fill="#FE804C" d="M259.326,87.446v7.29c0.002,0.392,0.052,0.779,0.15,1.16c0.098,0.392,0.271,0.765,0.505,1.099
	c0.24,0.342,0.556,0.622,0.922,0.821c0.893,0.426,1.928,0.426,2.821,0c0.365-0.199,0.682-0.481,0.924-0.821
	c0.234-0.334,0.406-0.707,0.505-1.099c0.099-0.381,0.149-0.769,0.15-1.16v-7.29h1.612v7.54c0.009,0.649-0.111,1.291-0.354,1.892
	c-0.219,0.553-0.543,1.057-0.955,1.483c-0.415,0.418-0.914,0.743-1.461,0.955c-1.17,0.448-2.461,0.448-3.629,0
	c-0.551-0.21-1.053-0.537-1.471-0.955c-0.42-0.421-0.75-0.92-0.972-1.468c-0.242-0.6-0.364-1.244-0.355-1.891v-7.557H259.326z"/>
<path fill="#FE804C" d="M273.193,96.852c0.271,0.421,0.658,0.754,1.114,0.965c0.439,0.205,0.92,0.312,1.406,0.313
	c0.277-0.005,0.555-0.046,0.821-0.129c0.277-0.082,0.539-0.213,0.771-0.387c0.229-0.165,0.42-0.378,0.563-0.619
	c0.148-0.261,0.223-0.559,0.217-0.857c0.025-0.4-0.136-0.789-0.436-1.05c-0.325-0.259-0.69-0.462-1.082-0.602
	c-0.432-0.163-0.902-0.321-1.412-0.472c-0.497-0.146-0.972-0.359-1.413-0.63c-0.436-0.275-0.805-0.646-1.08-1.083
	c-0.319-0.559-0.471-1.197-0.437-1.838c0.007-0.382,0.081-0.757,0.225-1.111c0.162-0.403,0.403-0.769,0.714-1.072
	c0.363-0.349,0.788-0.625,1.254-0.815c0.584-0.233,1.209-0.344,1.837-0.327c0.632-0.005,1.26,0.088,1.864,0.271
	c0.622,0.194,1.167,0.574,1.564,1.091l-1.313,1.188c-0.211-0.329-0.508-0.596-0.858-0.771c-0.388-0.196-0.82-0.295-1.258-0.286
	c-0.38-0.013-0.757,0.048-1.115,0.173c-0.268,0.101-0.511,0.257-0.715,0.454c-0.172,0.167-0.304,0.372-0.386,0.598
	c-0.067,0.188-0.104,0.388-0.108,0.588c-0.029,0.432,0.13,0.853,0.438,1.16c0.316,0.281,0.683,0.505,1.081,0.654
	c0.462,0.178,0.934,0.328,1.413,0.451c0.49,0.129,0.964,0.316,1.407,0.565c0.431,0.237,0.802,0.569,1.085,0.972
	c0.314,0.505,0.468,1.095,0.437,1.692c0.007,0.531-0.104,1.059-0.328,1.543c-0.206,0.443-0.507,0.841-0.88,1.157
	c-0.388,0.323-0.832,0.569-1.313,0.722c-0.52,0.171-1.063,0.257-1.608,0.251c-0.741,0.01-1.478-0.122-2.169-0.387
	c-0.653-0.246-1.22-0.678-1.629-1.243L273.193,96.852z"/>
<path fill="#FE804C" d="M285.266,87.446h1.609v11.891h-1.609V87.446z"/>
<path fill="#FE804C" d="M293.011,87.446h2.116l6.562,9.776h0.033v-9.776h1.614v11.891h-2.051l-6.614-9.771h-0.031v9.771h-1.629
	V87.446z"/>
<path fill="#FE804C" d="M309.501,87.446h7.672v1.513h-6.063v3.543h5.643v1.513h-5.643v3.813h6.364v1.509h-7.973V87.446z"/>
<path fill="#FE804C" d="M323.44,96.852c0.272,0.423,0.661,0.754,1.118,0.965c0.44,0.205,0.918,0.313,1.401,0.313
	c0.279-0.002,0.557-0.044,0.823-0.129c0.277-0.082,0.539-0.211,0.771-0.387c0.229-0.165,0.422-0.375,0.563-0.619
	c0.151-0.261,0.226-0.557,0.22-0.857c0.025-0.4-0.136-0.787-0.437-1.05c-0.325-0.259-0.692-0.46-1.085-0.602
	c-0.431-0.163-0.903-0.321-1.412-0.472c-0.495-0.146-0.97-0.359-1.408-0.63c-0.439-0.275-0.809-0.646-1.085-1.083
	c-0.316-0.559-0.468-1.197-0.436-1.838c0.007-0.382,0.084-0.757,0.228-1.111c0.159-0.403,0.403-0.771,0.715-1.072
	c0.36-0.349,0.785-0.625,1.248-0.815c0.587-0.233,1.211-0.344,1.839-0.327c0.63-0.005,1.258,0.088,1.864,0.271
	c0.613,0.198,1.152,0.58,1.543,1.091l-1.309,1.188c-0.211-0.329-0.507-0.596-0.855-0.771c-0.393-0.196-0.824-0.295-1.263-0.286
	c-0.378-0.013-0.757,0.048-1.114,0.173c-0.27,0.101-0.513,0.257-0.717,0.454c-0.169,0.17-0.301,0.372-0.384,0.598
	c-0.069,0.188-0.105,0.388-0.108,0.588c-0.027,0.432,0.132,0.853,0.437,1.16c0.317,0.283,0.686,0.507,1.085,0.654
	c0.462,0.178,0.93,0.328,1.408,0.451c0.493,0.129,0.968,0.318,1.412,0.565c0.43,0.237,0.799,0.571,1.081,0.972
	c0.318,0.505,0.47,1.095,0.437,1.692c0.007,0.531-0.104,1.059-0.326,1.543c-0.207,0.443-0.508,0.838-0.884,1.157
	c-0.386,0.323-0.828,0.567-1.308,0.722c-0.521,0.171-1.066,0.257-1.613,0.251c-0.738,0.01-1.473-0.122-2.164-0.387
	c-0.653-0.246-1.221-0.678-1.628-1.243L323.44,96.852z"/>
<path fill="#FE804C" d="M335.854,96.852c0.271,0.423,0.658,0.757,1.115,0.965c0.438,0.205,0.917,0.313,1.399,0.313
	c0.28-0.002,0.558-0.044,0.822-0.129c0.277-0.082,0.54-0.211,0.772-0.387c0.229-0.165,0.421-0.375,0.564-0.619
	c0.149-0.261,0.226-0.557,0.22-0.857c0.022-0.4-0.137-0.787-0.437-1.05c-0.327-0.259-0.692-0.462-1.085-0.602
	c-0.433-0.163-0.902-0.321-1.412-0.472c-0.496-0.146-0.97-0.359-1.409-0.63c-0.438-0.275-0.809-0.646-1.083-1.083
	c-0.319-0.559-0.471-1.197-0.438-1.838c0.008-0.382,0.086-0.757,0.228-1.111c0.159-0.403,0.403-0.771,0.714-1.072
	c0.361-0.349,0.786-0.625,1.252-0.815c0.585-0.233,1.211-0.344,1.84-0.327c0.63-0.005,1.258,0.088,1.859,0.271
	c0.615,0.198,1.153,0.58,1.545,1.091l-1.309,1.188c-0.209-0.329-0.507-0.596-0.855-0.771c-0.391-0.196-0.822-0.295-1.259-0.286
	c-0.383-0.013-0.761,0.046-1.12,0.173c-0.268,0.103-0.511,0.257-0.714,0.454c-0.171,0.17-0.304,0.372-0.387,0.598
	c-0.067,0.188-0.104,0.388-0.108,0.588c-0.026,0.432,0.133,0.853,0.438,1.16c0.317,0.283,0.685,0.505,1.083,0.654
	c0.461,0.178,0.932,0.328,1.41,0.451c0.491,0.129,0.966,0.318,1.412,0.565c0.427,0.237,0.798,0.571,1.081,0.972
	c0.318,0.505,0.473,1.095,0.438,1.692c0.007,0.531-0.104,1.059-0.327,1.543c-0.208,0.443-0.511,0.838-0.884,1.157
	c-0.387,0.323-0.829,0.569-1.309,0.722c-0.521,0.171-1.065,0.257-1.613,0.251c-0.74,0.01-1.476-0.122-2.166-0.387
	c-0.651-0.246-1.218-0.678-1.628-1.243L335.854,96.852z"/>
<path fill="#3B5D8F" d="M108.667,48.649h19.297v5.79h-13.045v5.292h12.308v5.789h-12.308v5.789h13.751v5.769h-20.003V48.649z"/>
<path fill="#3B5D8F" d="M132.96,48.649h9.378c2.181-0.008,4.357,0.251,6.476,0.772c1.931,0.455,3.75,1.293,5.351,2.466
	c1.545,1.164,2.79,2.683,3.626,4.427c0.896,1.819,1.344,4.025,1.344,6.615c0.044,2.099-0.401,4.18-1.301,6.075
	c-0.833,1.708-2.031,3.211-3.506,4.408c-1.515,1.211-3.241,2.126-5.092,2.701c-1.957,0.622-3.999,0.933-6.052,0.925H132.96V48.649z
	 M139.211,71.259h3.25c1.354,0.01,2.706-0.139,4.025-0.443c1.166-0.259,2.269-0.757,3.23-1.463c0.928-0.708,1.665-1.637,2.143-2.701
	c0.551-1.285,0.815-2.672,0.771-4.069c0.032-1.253-0.231-2.497-0.771-3.627c-0.498-0.999-1.217-1.869-2.104-2.544
	c-0.933-0.691-1.987-1.203-3.107-1.505c-1.221-0.34-2.482-0.509-3.748-0.501h-3.69V71.259z"/>
<path fill="#3B5D8F" d="M186.345,66.086c0.015,1.583-0.247,3.158-0.771,4.651c-0.484,1.376-1.256,2.634-2.267,3.687
	c-1.056,1.078-2.335,1.913-3.747,2.447c-3.361,1.174-7.022,1.174-10.383,0c-1.411-0.535-2.689-1.37-3.747-2.447
	c-1.011-1.055-1.783-2.311-2.266-3.687c-0.523-1.493-0.784-3.067-0.772-4.651V48.649h6.252v17.195
	c-0.007,0.834,0.135,1.663,0.42,2.447c0.267,0.715,0.67,1.371,1.186,1.929c0.51,0.552,1.132,0.989,1.823,1.282
	c0.73,0.313,1.519,0.471,2.315,0.464c0.786,0.008,1.564-0.148,2.285-0.464c0.683-0.298,1.299-0.734,1.805-1.282
	c0.515-0.561,0.916-1.216,1.183-1.929c0.286-0.783,0.43-1.612,0.42-2.447V48.649h6.256L186.345,66.086z"/>
<path fill="#3B5D8F" d="M209.802,56.025c-0.609-0.744-1.384-1.334-2.264-1.725c-0.976-0.417-2.029-0.621-3.088-0.603
	c-2.239-0.022-4.379,0.919-5.875,2.586c-0.754,0.849-1.339,1.836-1.722,2.906c-0.832,2.374-0.832,4.96,0,7.333
	c0.385,1.059,0.963,2.038,1.703,2.887c0.706,0.802,1.575,1.451,2.547,1.901c0.984,0.459,2.06,0.691,3.145,0.684
	c1.187,0.023,2.357-0.254,3.409-0.802c0.986-0.536,1.826-1.308,2.442-2.247l5.215,3.89c-1.151,1.639-2.732,2.93-4.569,3.729
	c-1.795,0.789-3.733,1.197-5.692,1.201c-2.09,0.021-4.169-0.332-6.133-1.043c-1.807-0.654-3.458-1.67-4.853-2.988
	c-1.386-1.325-2.472-2.93-3.188-4.709c-1.525-3.977-1.525-8.375,0-12.351c0.716-1.779,1.804-3.385,3.188-4.712
	c1.389-1.321,3.033-2.344,4.834-3.008c1.963-0.71,4.042-1.063,6.13-1.042c0.84,0.004,1.678,0.077,2.507,0.221
	c0.875,0.148,1.734,0.382,2.566,0.698c0.855,0.331,1.669,0.762,2.423,1.285c0.791,0.546,1.492,1.208,2.085,1.965L209.802,56.025z"/>
<path fill="#3B5D8F" d="M217.75,48.649h19.296v5.79h-13.032v5.292h12.304v5.789h-12.304v5.789h13.748v5.769H217.75V48.649z"/>
<path fill="#3B5D8F" d="M242.066,48.649h8.489l12.065,19.724h0.08V48.649h6.253v28.38h-8.183l-12.386-20.205h-0.08v20.205h-6.239
	V48.649z"/>
<path fill="#3B5D8F" d="M279.275,54.18h-8.104v-5.531h22.459v5.531h-8.106v22.85h-6.248V54.18z"/>
<path fill="#3B5D8F" d="M295.875,48.649h10.984c1.382-0.007,2.76,0.134,4.112,0.421c1.213,0.247,2.369,0.722,3.406,1.401
	c0.984,0.671,1.78,1.583,2.316,2.647c0.613,1.292,0.91,2.716,0.859,4.149c0.056,1.83-0.495,3.624-1.563,5.11
	c-1.027,1.401-2.551,2.289-4.569,2.667l7.218,11.964h-7.486l-5.933-11.343h-3.088V77.01h-6.257V48.649z M302.132,60.394h3.686
	c0.56,0,1.157,0,1.783-0.062c0.584-0.029,1.159-0.149,1.706-0.359c0.496-0.196,0.933-0.52,1.263-0.94
	c0.362-0.53,0.539-1.165,0.5-1.807c0.086-1.13-0.525-2.2-1.543-2.701c-0.492-0.24-1.022-0.396-1.567-0.46
	c-0.57-0.079-1.145-0.12-1.721-0.12h-4.106V60.394z"/>
<path fill="#3B5D8F" d="M321.479,48.649h19.297v5.79h-13.028v5.292h12.308v5.789h-12.308v5.789h13.751v5.769h-20.02V48.649z"/>
<path fill="#FFFFFF" d="M30.063,72.69c0-1.705,1.383-3.086,3.087-3.086h20.568c1.706,0,3.087,1.382,3.087,3.086v1.861
	c0,1.705-1.382,3.087-3.087,3.087H32.451c-1.31-0.002-2.371-1.064-2.373-2.374L30.063,72.69z"/>
<path fill="#FFFFFF" d="M62.081,88.558c0,1.704-1.382,3.088-3.086,3.088H30.047v-4.949c0-1.705,1.383-3.088,3.088-3.088h25.859
	c1.705,0,3.086,1.383,3.086,3.088V88.558z"/>
<path fill="#FFFFFF" d="M62.081,60.538c0,1.704-1.382,3.087-3.086,3.087H33.135c-1.706,0-3.088-1.383-3.088-3.087v-4.925h28.948
	c1.705,0,3.086,1.382,3.086,3.087V60.538z"/>
<g>
</g>
<g>
</g>
<g>
</g>
<g>
</g>
<g>
</g>
<g>
</g>
<g>
</g>
<g>
</g>
<g>
</g>
<g>
</g>
<g>
</g>
<g>
</g>
<g>
</g>
<g>
</g>
<g>
</g>
</svg>
